<?xml version="1.0" standalone="no"?>
<!DOCTYPE svg PUBLIC "-//W3C//DTD SVG 20010904//EN"
 "http://www.w3.org/TR/2001/REC-SVG-20010904/DTD/svg10.dtd">
<svg version="1.0" xmlns="http://www.w3.org/2000/svg"
 width="600.000000pt" height="600.000000pt" viewBox="0 0 600.000000 600.000000"
 preserveAspectRatio="xMidYMid meet">
<g transform="translate(0.000000,600.000000) scale(0.100000,-0.100000)"
fill="#008a10" stroke="none">
<path d="M2775 5485 c-113 -16 -167 -29 -280 -68 -125 -42 -284 -124 -396
-203 -91 -64 -298 -262 -335 -320 -10 -16 -30 -45 -45 -64 -42 -55 -117 -190
-150 -271 -36 -86 -69 -186 -69 -205 0 -8 -4 -22 -9 -32 -24 -43 -36 -177 -36
-387 0 -298 18 -405 118 -715 66 -207 233 -574 308 -682 11 -14 19 -29 19 -33
0 -10 113 -186 250 -389 74 -110 379 -499 420 -536 3 -3 50 -54 104 -115 136
-151 310 -325 324 -325 19 0 100 79 271 265 86 94 158 172 162 175 3 3 36 43
75 90 38 47 77 94 87 105 17 19 224 294 257 341 81 118 250 379 250 388 0 2
23 43 51 92 183 319 326 709 381 1039 27 168 13 606 -22 690 -5 11 -12 36 -16
55 -11 58 -91 250 -140 335 -26 44 -71 114 -102 155 -65 89 -247 272 -317 320
-27 18 -52 37 -55 40 -14 17 -189 113 -270 148 -248 107 -556 146 -835 107z
m430 -610 c109 -25 197 -62 294 -123 161 -102 271 -224 355 -395 179 -364 98
-812 -196 -1095 -68 -65 -89 -81 -168 -128 -335 -201 -750 -179 -1065 56 -195
146 -333 384 -366 629 -15 110 -5 272 22 370 26 98 100 248 161 328 151 201
401 346 648 377 65 8 245 -3 315 -19z"/>
<path d="M2230 1680 c-8 -5 -25 -10 -36 -10 -40 0 -314 -96 -374 -131 -8 -5
-28 -15 -45 -22 -16 -8 -36 -21 -44 -30 -7 -10 -19 -17 -27 -17 -17 0 -146
-127 -167 -165 -51 -94 -61 -191 -29 -281 18 -49 30 -65 100 -145 46 -53 252
-185 252 -162 0 4 5 2 12 -5 7 -7 20 -12 30 -12 10 0 18 -4 18 -9 0 -8 157
-62 240 -82 108 -26 180 -40 245 -50 39 -5 93 -15 120 -21 70 -16 755 -23 871
-9 150 19 276 39 339 55 33 8 87 21 120 29 72 18 218 67 225 76 3 4 22 12 43
18 90 27 233 129 316 225 66 77 90 211 54 308 -39 104 -141 211 -263 272 -14
7 -27 15 -30 18 -3 3 -25 14 -50 24 -25 10 -58 24 -75 31 -57 24 -140 53 -200
68 -77 21 -118 31 -126 31 -4 1 -32 -30 -63 -69 -31 -38 -68 -83 -82 -100
l-25 -30 38 -7 c75 -14 169 -36 223 -54 30 -10 60 -18 66 -18 26 -2 241 -105
256 -123 6 -7 15 -13 21 -13 12 0 67 -57 85 -88 36 -64 -1 -126 -123 -205 -94
-61 -285 -136 -393 -153 -23 -4 -45 -11 -48 -15 -3 -5 -24 -9 -48 -9 -24 0
-65 -7 -92 -15 -27 -8 -94 -17 -149 -20 -55 -4 -109 -11 -121 -16 -25 -13
-520 -6 -677 9 -164 16 -462 79 -529 113 -10 5 -23 9 -28 9 -10 0 -64 22 -130
53 -52 24 -137 86 -173 126 -69 77 -36 154 102 239 100 62 310 139 429 158 23
4 45 11 48 15 3 5 23 9 45 9 l40 0 -28 38 c-39 52 -135 167 -142 169 -3 2 -13
-2 -21 -7z"/>
</g>
</svg>
